<svg version="1.1" id="Layer_1" xmlns="http://www.w3.org/2000/svg" xmlns:xlink="http://www.w3.org/1999/xlink" x="0px" y="0px"
	 width="100%" viewBox="0 0 1024 1024" enable-background="new 0 0 1024 1024" xml:space="preserve">
<path fill="#000000" opacity="1.000000" stroke="none" 
	d="
M613.628906,554.598633 
	C638.182922,548.895996 661.169861,540.290100 682.680176,527.887756 
	C694.332336,521.169373 703.910706,511.843048 713.894348,503.025879 
	C715.226257,501.849487 715.775452,500.431396 715.990051,498.674866 
	C718.373901,479.163422 721.981628,459.908661 726.705078,440.795563 
	C730.573975,425.140869 736.062683,409.894196 738.354736,393.821686 
	C739.509583,385.723602 743.865173,379.213196 752.125977,377.015320 
	C762.391785,374.283997 772.622803,384.503082 771.012451,395.607605 
	C768.337830,414.051941 765.492065,432.472778 762.549133,450.876465 
	C759.335083,470.975525 756.559265,491.069580 759.192139,511.496307 
	C759.684937,515.319397 760.351868,519.091736 761.605591,522.697266 
	C766.365540,536.385437 780.297363,541.431091 793.900208,534.402039 
	C811.521484,525.296570 821.993469,510.595703 827.755066,491.876495 
	C835.236450,467.569641 837.958252,442.354980 842.575623,417.505615 
	C844.824341,405.403656 846.358032,393.174988 847.040100,380.844574 
	C847.745056,368.098938 855.021545,359.564209 867.820068,355.808044 
	C877.768799,352.888306 889.928528,357.123474 896.400085,365.513428 
	C900.489380,370.814911 900.740967,376.948120 900.528687,383.112152 
	C899.909241,401.094696 898.143982,418.997986 895.896240,436.836823 
	C890.858765,476.814514 884.398071,516.574280 877.493164,556.271729 
	C870.299744,597.627991 862.196594,638.773865 850.110779,679.011597 
	C844.939758,696.227722 839.543945,713.572388 827.647888,727.651611 
	C818.552490,738.416260 806.309509,744.205750 792.534851,745.925842 
	C785.174316,746.845093 777.947510,744.317261 771.766235,740.034363 
	C767.754456,737.254639 766.239868,733.136292 767.565186,728.170776 
	C770.068542,718.791687 774.120056,710.007874 777.931458,701.141296 
	C786.986816,680.075684 791.640686,657.707336 797.721924,635.744324 
	C804.348694,611.811218 809.800903,587.646973 814.053345,563.195923 
	C814.302429,561.763306 815.069885,560.294617 813.488831,558.672180 
	C810.246460,559.374084 808.216675,562.094788 805.711060,564.093018 
	C792.784912,574.402100 778.217651,580.761902 761.518677,579.696594 
	C739.891052,578.316833 726.765503,565.580933 719.543213,545.865051 
	C718.649841,543.426392 718.561829,540.600281 716.515869,538.621094 
	C713.982605,538.646057 713.181091,540.722046 712.055237,542.246582 
	C689.786255,572.402832 659.559265,590.372742 623.715149,599.409302 
	C601.877869,604.914551 579.707458,608.572144 557.068298,608.359253 
	C547.515625,608.269470 538.106689,607.125732 529.255188,603.267151 
	C520.201843,599.320618 515.529724,588.617188 518.461182,579.175476 
	C521.819946,568.357361 528.184143,559.134277 534.129578,549.717773 
	C558.776367,510.681641 585.547913,473.099274 612.449951,435.607727 
	C614.434326,432.842224 617.225159,430.533417 618.022095,427.002441 
	C616.128540,425.684143 614.621826,426.580780 613.083252,427.118988 
	C594.360779,433.668182 575.171997,438.602966 556.020081,443.677094 
	C549.469238,445.412689 542.844849,445.605133 536.176086,445.254486 
	C526.684021,444.755402 519.634033,437.670502 517.115173,426.331757 
	C515.301270,418.166321 519.836975,407.925049 527.016418,403.948547 
	C529.170044,402.755737 531.578003,402.275818 533.782104,403.137726 
	C543.267639,406.847107 552.584412,404.356232 561.789612,402.333954 
	C595.594788,394.907227 629.114380,386.278961 662.711365,377.976471 
	C669.488159,376.301788 676.372437,374.935059 683.282837,373.965942 
	C689.358093,373.113922 695.761047,373.455719 699.750427,378.831360 
	C704.223694,384.859009 705.683594,391.670349 702.087219,399.040436 
	C696.048645,411.415344 687.256836,421.947540 679.547424,433.186890 
	C662.397034,458.189972 644.593445,482.735352 625.947449,506.651672 
	C613.655945,522.417480 601.562805,538.328552 589.818115,554.504761 
	C589.147766,555.428040 588.562561,556.413025 587.283630,558.370483 
	C596.659790,558.087402 604.890198,555.969543 613.628906,554.598633 
z"/>
<path fill="#000000" opacity="1.000000" stroke="none" 
	d="
M221.238678,532.713928 
	C217.766846,522.725647 211.497742,518.767517 200.932663,519.772217 
	C190.233337,520.789795 189.991241,520.010376 188.230820,530.487183 
	C182.329102,565.610291 177.001266,600.821960 172.257111,636.121521 
	C170.838745,646.675110 169.579361,657.265076 166.985046,667.617493 
	C163.773987,680.431091 157.142365,686.027466 143.992477,687.208008 
	C135.452713,687.974548 127.884155,685.359314 121.024246,680.445435 
	C114.302483,675.630554 113.118233,668.354187 112.904152,660.914062 
	C112.413834,643.874451 114.899597,627.034851 117.005806,610.199829 
	C121.180359,576.832458 127.653030,543.834717 133.452148,510.729767 
	C139.194855,477.946808 145.739395,445.326141 153.012817,412.848114 
	C157.231155,394.011902 161.294220,375.150330 167.360901,356.779297 
	C169.836731,349.282043 174.284988,343.663849 180.940643,339.540955 
	C191.156815,333.212433 201.284195,326.835297 213.608475,325.242920 
	C223.561066,323.956970 229.065887,330.488831 226.344620,340.212128 
	C224.962280,345.151306 224.582001,350.361938 223.540253,355.406860 
	C216.978378,387.184937 210.149185,418.909790 203.882553,450.745636 
	C201.971695,460.453247 198.959595,470.060425 198.915634,480.033142 
	C201.327850,481.509888 203.428040,480.815918 205.468201,480.216248 
	C241.808838,469.535034 265.678589,445.437958 279.701782,410.897095 
	C286.198273,394.895508 290.947083,378.464325 289.722076,360.908600 
	C289.031494,351.011322 286.820282,341.537567 281.531677,332.915405 
	C272.534027,318.246185 258.149933,312.305145 242.326965,311.417206 
	C188.967270,308.422729 145.176773,328.383423 110.860039,369.156281 
	C103.430580,377.983459 98.770370,388.674561 92.728294,398.440887 
	C89.497246,403.663544 85.438766,407.679260 79.194206,406.879761 
	C72.695473,406.047699 68.808189,401.181091 66.748749,395.154968 
	C62.819237,383.656830 64.302643,372.303619 69.206535,361.588196 
	C77.469147,343.533722 91.333801,330.043152 106.927788,318.350403 
	C137.637039,295.323883 172.041916,279.972626 209.415268,271.814087 
	C236.776672,265.841125 264.506439,264.119965 292.077454,271.245605 
	C315.726898,277.357697 336.195709,288.184998 348.575073,310.587524 
	C355.797180,323.657166 358.219513,337.888214 357.965424,352.508301 
	C357.519012,378.196838 350.216156,402.044189 337.004181,424.052277 
	C322.730774,447.828522 304.299194,467.672241 281.036133,482.938049 
	C273.660614,487.778076 273.712341,487.906281 278.666016,495.184814 
	C289.545227,511.170013 296.161438,529.171753 303.302643,546.939270 
	C309.325073,561.923218 315.606964,576.802734 321.670959,591.770203 
	C323.635223,596.618591 326.746552,600.740295 329.475098,605.112488 
	C334.190704,612.668762 333.028534,618.521484 325.533234,623.406677 
	C303.051300,638.060181 284.697998,635.141846 266.646820,615.108337 
	C258.591522,606.168335 252.660858,595.646912 247.252609,584.918640 
	C238.556534,567.668396 230.022293,550.336609 221.238678,532.713928 
z"/>
<path fill="#000000" opacity="1.000000" stroke="none" 
	d="
M380.094604,732.396362 
	C376.575104,733.425964 373.485626,734.811462 370.333710,732.259583 
	C369.884003,731.895386 368.707642,732.136292 368.001831,732.425171 
	C358.704865,736.230896 348.801758,737.820679 339.009827,738.993408 
	C332.667938,739.752808 326.188721,740.048584 319.927765,741.329590 
	C313.760742,742.591431 306.542542,740.800415 301.787842,746.922302 
	C301.289398,747.564087 299.970734,747.642883 299.003265,747.835205 
	C281.553070,751.304199 264.115692,754.842224 246.635742,758.155212 
	C239.874329,759.436707 233.760666,762.652893 227.094376,764.146484 
	C225.506241,764.502258 223.986206,765.468079 222.168213,764.528748 
	C220.154373,759.461975 224.711197,755.556885 224.872147,750.560913 
	C220.572083,749.459534 216.624313,751.187866 212.660202,751.866028 
	C202.655487,753.577454 192.708374,755.624695 182.734009,757.515320 
	C180.669662,757.906555 178.054077,758.999695 177.244949,756.066895 
	C176.563232,753.596008 178.724899,752.146179 180.728668,751.214417 
	C191.752335,746.088501 202.760681,740.929077 214.541702,737.667358 
	C219.817703,736.206543 225.014542,734.459778 230.125320,732.880493 
	C230.648270,731.840942 229.940002,731.600098 229.410416,731.271973 
	C228.157837,730.495605 226.490356,729.963257 226.606216,728.123779 
	C226.735306,726.074646 228.610687,725.552490 230.105637,725.002075 
	C240.593048,721.140747 251.445572,718.564758 262.267059,715.844177 
	C275.655090,712.478271 288.974884,708.836182 302.293243,705.200134 
	C309.187073,703.318054 315.974792,701.044128 322.878021,699.200195 
	C355.556580,690.471375 388.755127,684.001953 421.700775,676.434387 
	C433.059937,673.825317 444.551910,671.040588 455.950714,670.000610 
	C470.170685,668.703308 483.684113,664.785828 497.582306,662.470398 
	C498.701385,662.283997 499.775024,661.824768 500.791809,661.066345 
	C489.847321,660.091370 479.494446,664.625183 468.587646,665.380493 
	C468.732819,662.448364 470.409149,662.286194 471.782593,661.901733 
	C494.179749,655.632202 516.907715,651.846252 540.269226,652.830200 
	C541.424194,652.878784 542.624695,652.841553 543.744507,652.584961 
	C578.771729,644.558167 614.313660,639.149719 649.461304,631.690552 
	C678.242249,625.582581 707.288757,620.561584 736.570984,617.511047 
	C749.822510,616.130554 763.077942,618.238464 775.510437,623.448914 
	C781.767639,626.071167 785.745972,630.709961 785.009705,638.167236 
	C783.693054,651.503235 779.941956,663.989502 771.064758,674.281250 
	C767.237854,678.717957 761.710449,681.302124 756.171326,683.113281 
	C740.395325,688.271484 724.491760,693.027649 708.368103,697.014221 
	C701.361206,698.746704 694.150269,698.335022 687.050903,699.152222 
	C673.042114,700.764526 658.981934,702.129028 644.904785,702.877869 
	C635.626160,703.371521 626.435364,704.770935 617.150146,704.994568 
	C615.829956,705.026367 613.953125,705.504456 613.418762,704.271729 
	C611.014038,698.725037 606.649170,701.738586 603.136536,701.874329 
	C600.722046,701.967590 598.332886,703.128357 595.964478,703.909363 
	C592.340942,705.104309 589.175842,705.739380 587.684265,700.783875 
	C586.890259,698.145935 584.200806,698.717224 582.082947,698.853516 
	C575.215393,699.295349 568.589600,700.884583 562.207520,703.415161 
	C544.863770,710.292297 526.329407,712.092773 508.250031,715.681458 
	C503.434387,716.637329 498.132294,716.538757 493.075348,717.297974 
	C490.725067,717.650818 488.442139,717.943420 486.740448,719.781494 
	C485.205048,721.439880 483.210602,722.085205 481.331512,721.091797 
	C479.123322,719.924377 480.646973,717.830688 480.869446,716.135986 
	C481.017242,715.010132 481.364716,713.910400 481.681091,712.547852 
	C476.622559,710.716675 472.297791,714.198608 467.508209,713.921875 
	C464.851135,713.768311 461.723755,713.589050 458.735870,714.491211 
	C455.544403,715.455078 452.064880,715.142639 451.629700,719.740173 
	C451.564148,720.432983 450.227997,721.519409 449.447632,721.547974 
	C444.061493,721.744568 439.466156,724.742737 434.499481,726.201965 
	C431.010132,727.227051 427.281464,729.277161 423.567810,730.594177 
	C419.993011,731.861938 416.607788,732.959595 413.016266,729.485352 
	C410.197418,726.758606 406.334595,728.816650 403.183868,730.152039 
	C395.819153,733.273560 388.419189,735.285645 380.094604,732.396362 
z"/>
<path fill="#000000" opacity="1.000000" stroke="none" 
	d="
M442.647675,400.930511 
	C480.639526,405.868225 506.720367,435.645691 512.188232,474.091736 
	C516.278564,502.851257 512.844604,530.527405 501.237274,557.106445 
	C488.123199,587.135559 465.884583,607.559448 434.935364,618.162231 
	C416.998108,624.307251 398.759979,625.261902 380.537048,618.840576 
	C365.332184,613.482666 353.456940,604.079895 345.462250,589.996399 
	C332.485046,567.135681 330.105255,542.288696 333.224823,516.903809 
	C337.397827,482.947205 351.446747,453.372681 376.065002,429.334900 
	C390.674286,415.070068 408.154144,405.737640 428.256287,401.491272 
	C432.903412,400.509644 437.538513,400.887451 442.647675,400.930511 
M471.566193,516.054077 
	C474.907806,501.021851 477.350708,485.977234 473.680878,470.585510 
	C471.248260,460.382690 466.888672,451.724487 456.501801,447.630615 
	C452.174591,445.925049 447.679596,444.634155 443.227722,443.262451 
	C441.782776,442.817200 440.152100,442.709656 439.614929,441.020630 
	C437.986603,435.900635 434.960510,437.957367 432.314087,439.721497 
	C419.106506,448.526001 408.905945,459.851898 403.078735,474.847992 
	C396.379608,492.088013 394.162994,510.004974 395.450287,528.309387 
	C396.198029,538.941406 398.003235,549.413025 403.841125,558.820923 
	C410.319702,569.261475 421.762360,573.488525 433.181488,569.008301 
	C442.783600,565.240967 450.197235,558.699829 456.043762,550.324890 
	C463.179932,540.102539 467.711243,528.669617 471.566193,516.054077 
z"/>
<path fill="#000000" opacity="1.000000" stroke="none" 
	d="
M883.730469,595.939270 
	C880.897766,592.482666 884.220154,591.850098 885.930115,591.030823 
	C893.643433,587.335144 902.002258,585.644775 910.331177,584.171814 
	C921.623352,582.174744 933.001587,580.211914 944.494141,582.822266 
	C946.912415,583.371521 949.349854,584.073547 951.595947,585.103333 
	C963.198730,590.423279 965.420898,600.872314 957.177307,610.631653 
	C950.635498,618.376465 942.122559,623.193237 932.806396,626.540039 
	C919.645691,631.268188 906.071411,634.597534 892.401245,637.533569 
	C887.112732,638.669495 881.796692,638.146667 876.486145,638.200623 
	C872.263367,638.243530 871.210083,636.166321 871.726379,632.113403 
	C873.716064,616.492371 882.788330,606.599060 896.684998,600.485291 
	C902.009155,598.142822 907.419312,595.995789 912.755066,593.407043 
	C903.089661,592.921570 893.688904,595.618835 883.730469,595.939270 
z"/>
<path fill="#000000" opacity="1.000000" stroke="none" 
	d="
M199.452972,772.581909 
	C196.777542,772.943481 193.956573,773.493103 193.774078,770.173462 
	C193.545212,766.009949 197.564255,766.378296 200.081436,765.216919 
	C202.636795,764.037964 204.183563,765.884094 204.639130,767.612122 
	C205.641479,771.414124 201.921082,771.300415 199.452972,772.581909 
z"/>
<path fill="#000000" opacity="1.000000" stroke="none" 
	d="
M212.645386,763.328125 
	C211.697449,764.625061 210.914734,766.291748 209.486664,764.811401 
	C208.271835,763.552185 208.510315,761.731934 209.151611,760.151062 
	C209.535385,759.205078 210.338821,758.325134 211.426880,758.756287 
	C213.446930,759.556885 212.966736,761.366028 212.645386,763.328125 
z"/>
</svg>